<svg xmlns="http://www.w3.org/2000/svg" viewBox="0 0 80 80"><path fill="#fff" d="M40 4C20.1 4 4 20.1 4 40s16.1 36 36 36 36-16.1 36-36S59.9 4 40 4z"/><path fill="#4285f4" d="M51.5 34.9c0-1-.1-2.1-.3-3.1H40v5.8h6.5c-.3 1.5-1.1 2.8-2.4 3.7v3h3.9c2.3-2.1 3.5-5.2 3.5-9.4z"/><path fill="#34a853" d="M40 52c3.2 0 6-1.1 7.9-2.9l-3.9-3c-1.1.7-2.4 1.2-4.1 1.2-3.1 0-5.8-2.1-6.7-5h-4v3.1C31.2 49.5 35.3 52 40 52z"/><path fill="#fbbc05" d="M33.3 42.3c-.2-.7-.4-1.5-.4-2.3s.1-1.6.4-2.3v-3.1h-4c-.8 1.6-1.3 3.4-1.3 5.4s.5 3.8 1.3 5.4l4-3.1z"/><path fill="#ea4335" d="M40 32.7c1.8 0 3.3.6 4.6 1.8l3.4-3.4C45.9 29.1 43.2 28 40 28c-5 0-9.3 2.5-11.7 6.9l4 3.1c1-2.9 3.6-5 7.7-5z"/></svg>