<svg xmlns="http://www.w3.org/2000/svg" viewBox="0 0 200 200"><rect width="200" height="200" fill="#ffffff"/><path d="M40 40h40v40H40z" fill="#000"/><path d="M120 40h40v40h-40z" fill="#000"/><path d="M40 120h40v40H40z" fill="#000"/><path d="M120 120v10h10v-10h-10zm10 10v10h10v-10h-10zm10 0h10v-10h-10v10zm0 10v10h10v-10h-10zm-20 0h10v-10h-10v10z" fill="#000"/><path d="M50 50h20v20H50z" fill="#fff"/><path d="M130 50h20v20h-20z" fill="#fff"/><path d="M50 130h20v20H50z" fill="#fff"/><path d="M80 80h40v40H80z" fill="#000"/></svg>